<?xml version="1.0" encoding="UTF-8"?>
<svg id="Calque_1" data-name="Calque 1" xmlns="http://www.w3.org/2000/svg" viewBox="0 0 188.61 182.69">
  <polyline points="126.15 83.44 136.16 60.81 148.96 60.89 161.25 100.03 175.61 53.28 186.69 56.28 161.13 134.17 142.45 76.77 139.09 76.69 127.42 109.31" style="fill: #f2c28c; stroke: #99714a; stroke-miterlimit: 10; stroke-width: 3px;"/>
  <path d="M79.71,179.75l50.25-24.99c1.06-.5,1.74-1.57,1.75-2.74l.65-136.83c0-1.98-1.83-3.44-3.76-2.98l-47.82,11.73" style="fill: #f2c28c; stroke: #99714a; stroke-miterlimit: 10; stroke-width: 5px;"/>
  <path d="M6.12,10.91c-1.87-.38-3.62,1.05-3.62,2.95v141.6c0,2.4,1.61,4.51,3.93,5.14l71.85,19.54c.92.25,1.83-.44,1.83-1.4V26" style="fill: #f2c28c; stroke: #99714a; stroke-miterlimit: 10; stroke-width: 5px;"/>
  <path d="M130.27,13.09c.45-.1.43-.75-.02-.83L61.21,2.69c-1.67-.26-3.37-.25-5.04.03L5.54,10.85c-1.41.24-1.44,2.25-.04,2.54l75.26,12.9,49.52-13.19Z" style="fill: #f2c28c; stroke: #99714a; stroke-miterlimit: 10; stroke-width: 5px;"/>
  <line x1="92.56" y1="35.43" x2="92.56" y2="104.61" style="fill: #f2c28c; stroke: #99714a; stroke-linecap: round; stroke-miterlimit: 10; stroke-width: 3px;"/>
  <line x1="106.57" y1="42.75" x2="106.57" y2="89.36" style="fill: #f2c28c; stroke: #99714a; stroke-linecap: round; stroke-miterlimit: 10; stroke-width: 3px;"/>
  <line x1="120.13" y1="27.77" x2="120.13" y2="93.29" style="fill: #f2c28c; stroke: #99714a; stroke-linecap: round; stroke-miterlimit: 10; stroke-width: 3px;"/>
  <path d="M40.8,159.54c7.26-15.39,14.88-32.09,13.26-49.46-.44-3.96-1.71-7.64-3.4-11.22-4.79-11.25-7.95-23.1-9.93-35.11-1.41-9.35-1.93-18.9-1.29-28.34,0,0,1,.05,1,.05-.25,8.04.4,16.07,1.45,24.03,2.07,13.18,5.57,26.24,10.83,38.48,2.47,4.95,3.86,10.43,3.86,15.97-.01,16.48-7.11,31.97-14.76,46.13,0,0-1.02-.53-1.02-.53h0Z" style="fill: #99714a;"/>
  <path d="M10.49,78.16c4.54,6.18,7.33,13.66,7.38,21.38-.11,7.77-3.51,14.92-7.26,21.5,0,0-1.1-.6-1.1-.6,3.28-6.54,6.55-13.51,6.65-20.91,0-7.38-2.56-14.59-6.53-20.79,0,0,.85-.58.85-.58h0Z" style="fill: #99714a;"/>
  <path d="M21.22,149.1c2.94-7.86,5.77-15.76,8.03-23.8,2.45-9.01,4.61-18.25,3.75-27.5-1.25-7.15-3.23-14.21-5.99-20.92-3.13-7.71-7.37-14.96-12.45-21.61l.71-.57c5.53,6.41,10.06,13.69,13.46,21.46,2.98,6.8,5.03,14.04,6.41,21.33.89,9.63-1.3,19.2-3.98,28.36-2.42,8.09-5.43,15.98-8.75,23.73l-1.2-.48h0Z" style="fill: #99714a;"/>
  <path d="M79.44,88.46c-10.8-9.53-19.98-22.55-20.58-37.37,0,0,.85-.08.85-.08,1.6,10.58,6.82,20.21,13.74,28.26,2.3,2.7,4.77,5.25,7.34,7.73l-1.35,1.47h0Z" style="fill: #99714a;"/>
  <ellipse cx="116.33" cy="134.65" rx="6.33" ry="4.68" transform="translate(-35.35 227.7) rotate(-80.7)" style="fill: none; stroke: #c9936b; stroke-linecap: round; stroke-miterlimit: 10; stroke-width: 3px;"/>
  <ellipse cx="118.25" cy="135.1" rx="6.33" ry="4.68" transform="translate(-34.18 229.96) rotate(-80.7)" style="fill: #f2c28c; stroke: #99714a; stroke-linecap: round; stroke-miterlimit: 10; stroke-width: 3px;"/>
  <g>
    <path d="M90.74,152.52c4.86-8.66,7.95-15.41,9.23-20.23,1.15-4.56,1.28-9.46.61-14.62" style="fill: #f2c28c;"/>
    <path d="M90.09,152.16c3.52-6.73,7.32-13.5,9.2-20.88,1-4.43,1.03-8.99.58-13.51l1.41-.18c.73,4.64.77,9.47-.25,14.09-1.11,4.59-3.15,8.86-5.21,13.05-1.38,2.78-2.9,5.48-4.44,8.16l-1.29-.72h0Z" style="fill: #99714a;"/>
  </g>
</svg>